HIERARCHY
ROOT Hips
{
	OFFSET 0.00000 0.00000 0.00000
	CHANNELS 6 Xposition Yposition Zposition Zrotation Yrotation Xrotation 
	JOINT LHipJoint
	{
		OFFSET 0 0 0
		CHANNELS 3 Zrotation Yrotation Xrotation
		JOINT LeftUpLeg
		{
			OFFSET 1.42489 -1.84941 0.69647
			CHANNELS 3 Zrotation Yrotation Xrotation
			JOINT LeftLeg
			{
				OFFSET 2.44443 -6.71602 0.00000
				CHANNELS 3 Zrotation Yrotation Xrotation
				JOINT LeftFoot
				{
					OFFSET 2.62838 -7.22137 0.00000
					CHANNELS 3 Zrotation Yrotation Xrotation
					JOINT LeftToeBase
					{
						OFFSET 0.24036 -0.66037 2.29953
						CHANNELS 3 Zrotation Yrotation Xrotation
						End Site
						{
							OFFSET 0.00000 -0.00000 1.19837
						}
					}
				}
			}
		}
	}
	JOINT RHipJoint
	{
		OFFSET 0 0 0
		CHANNELS 3 Zrotation Yrotation Xrotation
		JOINT RightUpLeg
		{
			OFFSET -1.37055 -1.84941 0.69647
			CHANNELS 3 Zrotation Yrotation Xrotation
			JOINT RightLeg
			{
				OFFSET -2.54834 -7.00152 0.00000
				CHANNELS 3 Zrotation Yrotation Xrotation
				JOINT RightFoot
				{
					OFFSET -2.65692 -7.29983 0.00000
					CHANNELS 3 Zrotation Yrotation Xrotation
					JOINT RightToeBase
					{
						OFFSET -0.18839 -0.51760 2.29390
						CHANNELS 3 Zrotation Yrotation Xrotation
						End Site
						{
							OFFSET -0.00000 -0.00000 1.18261
						}
					}
				}
			}
		}
	}
	JOINT LowerBack
	{
		OFFSET 0 0 0
		CHANNELS 3 Zrotation Yrotation Xrotation
		JOINT Spine
		{
			OFFSET 0.05220 2.15489 0.05011
			CHANNELS 3 Zrotation Yrotation Xrotation
			JOINT Spine1
			{
				OFFSET -0.07653 2.14219 -0.05668
				CHANNELS 3 Zrotation Yrotation Xrotation
				JOINT Neck
				{
					OFFSET 0 0 0
					CHANNELS 3 Zrotation Yrotation Xrotation
					JOINT Neck1
					{
						OFFSET 0.01370 1.58638 0.01447
						CHANNELS 3 Zrotation Yrotation Xrotation
						JOINT Head
						{
							OFFSET 0.23548 1.54190 -0.21747
							CHANNELS 3 Zrotation Yrotation Xrotation
							End Site
							{
								OFFSET 0.07132 1.59823 -0.08163
							}
						}
					}
				}
				JOINT LeftShoulder
				{
					OFFSET 0 0 0
					CHANNELS 3 Zrotation Yrotation Xrotation
					JOINT LeftArm
					{
						OFFSET 3.47056 1.45357 -0.58896
						CHANNELS 3 Zrotation Yrotation Xrotation
						JOINT LeftForeArm
						{
							OFFSET 5.19069 -0.00000 0.00000
							CHANNELS 3 Zrotation Yrotation Xrotation
							JOINT LeftHand
							{
								OFFSET 3.30016 -0.00000 0.00000
								CHANNELS 3 Zrotation Yrotation Xrotation
								JOINT LeftFingerBase
								{
									OFFSET 0 0 0
									CHANNELS 3 Zrotation Yrotation Xrotation
									JOINT LeftHandIndex1
									{
										OFFSET 0.70770 -0.00000 0.00000
										CHANNELS 3 Zrotation Yrotation Xrotation
										End Site
										{
											OFFSET 0.57056 -0.00000 0.00000
										}
									}
								}
								JOINT LThumb
								{
									OFFSET 0 0 0
									CHANNELS 3 Zrotation Yrotation Xrotation
									End Site
									{
										OFFSET 0.57928 -0.00000 0.57928
									}
								}
							}
						}
					}
				}
				JOINT RightShoulder
				{
					OFFSET 0 0 0
					CHANNELS 3 Zrotation Yrotation Xrotation
					JOINT RightArm
					{
						OFFSET -2.89018 2.03305 -0.26731
						CHANNELS 3 Zrotation Yrotation Xrotation
						JOINT RightForeArm
						{
							OFFSET -5.23924 -0.00000 0.00000
							CHANNELS 3 Zrotation Yrotation Xrotation
							JOINT RightHand
							{
								OFFSET -3.32953 -0.00000 0.00000
								CHANNELS 3 Zrotation Yrotation Xrotation
								JOINT RightFingerBase
								{
									OFFSET 0 0 0
									CHANNELS 3 Zrotation Yrotation Xrotation
									JOINT RightHandIndex1
									{
										OFFSET -0.60741 -0.00000 0.00000
										CHANNELS 3 Zrotation Yrotation Xrotation
										End Site
										{
											OFFSET -0.48971 -0.00000 0.00000
										}
									}
								}
								JOINT RThumb
								{
									OFFSET 0 0 0
									CHANNELS 3 Zrotation Yrotation Xrotation
									End Site
									{
										OFFSET -0.49719 -0.00000 0.49719
									}
								}
							}
						}
					}
				}
			}
		}
	}
}
MOTION
Frames: 11
Frame Time: 0.0148148
0.00 0.00 0.00 0 0 0 0 0 0 -21 0 0 0 0 0 0 0 0 0 0 0 0 0 0 21 0 0 0 0 0 0 0 0 0 0 0 0 0 0 0 0 0 0 0 0 0 0 -16 0 0 21 0 0 11 0 0 0 -8 0 0 0 0 0 0 0 0 0 0 0 0 0 0 0 0 0 0 0 0 8 0 0 0 0 0 0 0 0 0 0 0 0 0 0 0 0 0
0.00 0.00 0.00 -7.3200 0.9257 2.6285 0.0000 0.0000 0.0000 -11.2859 1.7533 -12.2099 3.6750 11.7149 34.7306 2.5567 10.4572 -35.3154 0.0602 -1.5834 -4.3557 0.0000 0.0000 0.0000 25.4893 5.7157 -15.8179 -4.1623 -12.3733 37.0656 -1.6540 3.8922 -23.3766 -0.0275 1.0712 -2.9447 5.2426 -2.1523 -7.6157 0.5568 -3.4640 2.7154 -2.8128 -1.4838 6.8608 -13.6594 -12.9048 0.4447 23.7210 -18.4318 1.1793 8.4809 -9.1210 3.8931 -0.0000 0.0000 0.0000 -84.8721 -4.0560 28.1648 8.3111 -14.0559 -1.0264 -0.0000 -0.0000 0.5953 12.0593 -8.3060 -1.7677 -7.1250 0.0000 -0.0000 -10.6905 21.5437 6.1231 -0.0000 0.0000 0.0000 0.0000 -0.0000 -0.0000 0.0000 -0.0000 -0.0000 0.0000 0.0000 0.0000 0.0000 0.0000 0.0000 0.0000 0.0000 0.0000 0.0000 -0.0000 0.0000
0.00 0.00 0.00 -5.2691 18.4959 0.6931 0.0000 0.0000 0.0000 -8.3039 -0.7832 -19.2932 4.2086 12.4330 37.2814 1.2249 0.3938 -21.0733 0.4441 -4.2758 -11.8539 0.0000 0.0000 0.0000 26.9683 -1.5216 -19.2729 -4.4014 -12.6762 38.1681 -2.0684 -2.8829 -28.3295 -0.0410 -1.3065 3.5926 10.1176 0.1574 -1.9155 0.2020 -0.2898 4.7719 -5.4816 0.3400 6.0819 -2.4621 -3.0480 -13.2437 7.3375 -4.8823 14.4659 2.2926 -1.8514 6.8469 0.0000 -0.0000 0.0000 -81.4776 -6.0678 36.4140 16.5377 -26.2443 -3.8807 -0.0000 0.0000 -9.9364 9.6203 -8.7193 -1.4719 -7.1250 0.0000 -0.0000 -12.4091 21.2173 7.2455 0.0000 -0.0000 0.0000 86.9179 -1.7034 23.4315 -14.6420 23.6450 -3.0809 0.0000 0.0000 2.1167 -6.8749 -9.7525 1.1700 7.1250 -0.0000 -0.0000 17.3629 -39.2098 2.5682
0.00 0.00 0.00 -9.8647 22.8388 1.1737 0.0000 0.0000 0.0000 -6.7022 3.6437 -24.0099 6.0614 14.4876 45.2278 2.4199 -0.1812 -29.4260 0.3617 -3.8636 -10.6933 0.0000 0.0000 0.0000 28.3774 0.8197 -18.2537 -4.6538 -12.9830 39.3048 -2.5696 -0.8016 -30.6515 -0.0057 0.4893 -1.3446 8.0732 -0.0408 -2.1657 -0.2206 -0.3872 3.1139 -4.7843 0.0836 4.4176 -2.9075 -4.3700 -11.9906 11.2050 -7.0047 11.8132 3.4052 -2.6986 6.0731 -0.0000 -0.0000 0.0000 -73.5610 3.4966 55.4906 20.5734 -31.3270 -5.8266 -0.0000 0.0000 -29.5618 7.7285 -2.0251 -0.2748 -7.1250 0.0000 -0.0000 -14.4418 27.8264 6.2142 -0.0000 -0.0000 0.0000 85.0233 -0.5112 45.2819 -27.5273 38.6774 -9.8269 0.0000 -0.0000 -7.6724 -7.1627 -10.1543 1.2692 7.1250 -0.0000 -0.0000 17.2278 -39.6186 2.3668
0.00 0.00 0.00 -12.0592 18.6625 0.3471 0.0000 0.0000 0.0000 -5.5879 4.7868 -23.6041 7.2624 15.5489 49.8598 3.4331 1.1264 -35.5337 0.2832 -3.4224 -9.4570 0.0000 0.0000 0.0000 28.4207 5.1585 -22.8454 -8.1595 -16.2353 53.1352 -2.2347 -1.1606 -28.7191 -1.1715 6.8703 -19.3316 4.3629 -2.0714 0.3377 -3.3207 -2.7337 3.7213 -5.9648 -1.1755 3.2948 -2.2621 -1.9669 -9.9343 19.1092 -3.6110 3.8954 6.0568 -1.0289 3.2610 0.0000 -0.0000 0.0000 -76.1489 1.5467 36.3362 17.2231 -27.1510 -4.1886 -0.0000 0.0000 -18.0824 15.2243 -6.4087 -1.7400 -7.1250 0.0000 -0.0000 -8.4834 23.3549 4.4728 0.0000 -0.0000 0.0000 88.7368 -3.7468 47.1579 -27.4318 38.5878 -9.7672 0.0000 -0.0000 -11.4436 -15.9941 -5.8076 1.6613 7.1250 -0.0000 -0.0000 8.9680 -35.8971 2.0268
0.00 0.00 0.00 -10.1986 18.0378 0.4062 0.0000 0.0000 0.0000 -8.6697 6.9024 -22.1044 6.9222 15.2660 48.5794 3.6490 -0.5771 -36.1207 0.2380 -3.1399 -8.6685 0.0000 0.0000 0.0000 23.3945 7.3885 -31.6000 -13.0600 -18.8037 69.3117 -0.7929 -3.7141 -18.5654 -1.2029 6.9586 -19.5927 2.5248 -3.1233 1.9755 -3.8040 -4.0697 3.8736 -5.3441 -1.9092 2.4349 -1.5851 -0.9457 -8.7321 19.2982 -1.6917 0.4637 6.0784 -0.3432 1.8320 -0.0000 -0.0000 0.0000 -77.8944 -5.0283 43.3136 22.1827 -33.1829 -6.6856 -0.0000 0.0000 -22.1440 18.0208 -11.0747 -3.5758 -7.1250 0.0000 -0.0000 -6.3865 18.3903 4.0708 -0.0000 -0.0000 0.0000 87.2482 -7.8142 45.9207 -21.6881 32.6227 -6.4169 0.0000 -0.0000 -10.9382 -22.8471 -2.5161 1.0596 7.1250 -0.0000 -0.0000 3.0355 -32.6995 0.9157
0.00 0.00 0.00 -9.4408 19.0791 0.6967 0.0000 0.0000 0.0000 -10.9788 7.4968 -17.8127 5.4615 13.8854 42.7804 3.4650 -1.8908 -34.8336 0.1811 -2.7409 -7.5582 0.0000 0.0000 0.0000 19.3171 9.0873 -42.7141 -18.5449 -19.9492 85.7421 -0.5622 -5.9212 -17.5559 -0.9890 6.3295 -17.7435 3.0642 -4.5763 1.9047 -3.0729 -6.0312 3.5845 -4.8404 -2.9065 1.9836 -0.9501 -0.1669 -7.6484 18.7592 -0.3209 -1.4520 5.8372 0.1453 0.9312 0.0000 0.0000 0.0000 -76.7350 -14.4851 55.3900 43.4699 -49.9965 -21.0600 -0.0000 0.0000 -28.6121 13.6396 -16.6460 -3.9763 -7.1250 0.0000 -0.0000 -9.4243 13.0470 7.1530 0.0000 0.0000 0.0000 81.9106 -16.6515 50.0285 -17.8095 27.9125 -4.4597 0.0000 -0.0000 -4.1785 -15.1979 0.3064 -0.0832 7.1250 -0.0000 -0.0000 8.9064 -29.6049 3.3806
0.00 0.00 0.00 -8.8791 20.1862 1.1566 0.0000 0.0000 0.0000 -12.6930 6.4141 -12.4889 3.9439 12.0854 36.0349 3.1044 -0.8993 -33.1728 0.1698 -2.6544 -7.3181 0.0000 0.0000 0.0000 17.3775 10.5338 -49.5102 -21.4247 -19.9513 94.1687 -0.8534 -4.3498 -19.5509 -1.4401 7.5869 -21.4664 3.6807 -5.7811 1.1396 -1.9794 -7.6835 2.9701 -4.0567 -3.7518 1.6730 -0.1428 0.5426 -7.2224 17.2590 0.6311 -1.6280 5.2521 0.5570 0.7011 -0.0000 -0.0000 0.0000 -73.6326 -23.1616 59.6119 71.2204 -58.6246 -43.8115 -0.0000 0.0000 -29.7217 9.8862 -18.9566 -3.2403 -7.1250 0.0000 -0.0000 -11.8890 11.0722 9.5988 -0.0000 -0.0000 0.0000 76.2353 -24.8789 53.8597 -18.1068 28.2937 -4.5997 0.0000 0.0000 2.1874 -7.1890 3.4803 -0.4387 7.1250 -0.0000 -0.0000 14.6630 -26.4033 6.8246
0.00 0.00 0.00 -8.3992 21.1886 1.7086 0.0000 0.0000 0.0000 -13.7003 5.5966 -9.3160 3.1625 10.9535 32.1233 2.8601 -0.4774 -31.9342 0.1808 -2.7390 -7.5529 0.0000 0.0000 0.0000 16.4904 11.3810 -53.3926 -22.5418 -19.8444 97.4503 -1.0470 -2.7666 -20.5109 -1.6098 8.0011 -22.7175 3.9317 -6.6337 0.3837 -1.0714 -8.8616 2.4451 -3.2998 -4.3557 1.5461 0.5641 1.0219 -7.1435 15.8221 1.2169 -1.5337 4.7023 0.8250 0.6621 0.0000 0.0000 0.0000 -70.3687 -29.3176 59.6068 90.7182 -59.9981 -60.6220 -0.0000 0.0000 -30.2175 8.3424 -20.3242 -2.9157 -7.1250 0.0000 -0.0000 -12.8713 9.8575 10.7602 0.0000 0.0000 0.0000 72.5739 -30.0931 54.0835 -19.2396 29.7153 -5.1491 0.0000 0.0000 2.6451 -5.2214 4.3848 -0.4003 7.1250 -0.0000 -0.0000 16.0000 -25.5240 7.8372
0.00 0.00 0.00 -7.9180 22.4935 2.4425 0.0000 0.0000 0.0000 -14.4066 4.9469 -6.3271 2.5720 9.9676 28.8719 2.6305 -1.0788 -30.4316 0.2158 -2.9903 -8.2517 0.0000 0.0000 0.0000 16.0625 12.4965 -57.1175 -22.7925 -19.8120 98.1893 -1.2164 -1.5700 -21.4590 -1.7773 8.3859 -23.8925 4.3760 -7.6277 -0.5817 0.0891 -10.2439 1.8220 -2.4322 -5.0581 1.4606 1.3984 1.5463 -7.0812 13.8259 1.8725 -1.6466 4.3657 1.1085 0.5966 0.0000 -0.0000 0.0000 -64.8754 -36.4234 56.5312 109.5024 -58.5129 -76.8052 -0.0000 0.0000 -30.4721 8.0762 -21.2412 -2.9429 -7.1250 0.0000 -0.0000 -13.0365 8.9816 11.1416 0.0000 -0.0000 0.0000 68.7935 -35.2629 52.0745 -20.8297 31.6290 -5.9604 0.0000 0.0000 2.8302 -4.6656 5.3634 -0.4371 7.1250 -0.0000 -0.0000 16.2816 -24.5812 8.3603
0.00 0.00 0.00 -5.5261 22.5491 3.9424 0.0000 0.0000 0.0000 -17.2022 5.1576 -1.6817 2.0516 8.9727 25.7100 2.6372 -2.2428 -30.1696 0.2634 -3.3015 -9.1194 0.0000 0.0000 0.0000 14.9821 15.2337 -59.3069 -19.6450 -19.9970 88.9619 -1.4883 -0.4575 -23.2438 -1.7438 8.3107 -23.6620 4.2613 -8.2866 -1.6982 1.0989 -11.1747 1.1129 -1.4749 -5.5367 1.5041 2.5450 2.0738 -7.0897 11.9182 2.5164 -1.8855 3.4763 1.3846 0.5013 0.0000 -0.0000 0.0000 -54.0966 -43.5564 47.3107 126.6270 -54.2685 -91.1094 -0.0000 0.0000 -30.1655 7.7718 -21.8957 -2.9137 -7.1250 0.0000 -0.0000 -13.2265 8.3680 11.4792 0.0000 -0.0000 0.0000 65.4285 -40.0293 48.0420 -23.6266 34.7669 -7.4926 0.0000 0.0000 2.2325 -3.6788 6.5896 -0.4227 7.1250 -0.0000 -0.0000 16.8406 -23.4075 9.1525
